<?xml version="1.0" encoding="UTF-8"?>
<svg id="Livello_1" xmlns="http://www.w3.org/2000/svg" version="1.1" viewBox="0 0 200 200">
  <!-- Generator: Adobe Illustrator 29.0.1, SVG Export Plug-In . SVG Version: 2.1.0 Build 192)  -->
  <defs>
    <style>
      .st0 {
        fill: #4f4f4f;
      }

      .st1 {
        fill: #fff;
        stroke-miterlimit: 10;
        stroke-width: 5px;
      }

      .st1, .st2 {
        stroke: #fff;
      }

      .st2 {
        stroke-width: 3px;
      }

      .st2, .st3 {
        fill: none;
      }

      .st4 {
        fill: #097;
      }

      .st5 {
        font-family: ArialMT, Arial;
        font-size: 4.7px;
      }

      .st5, .st6, .st7 {
        isolation: isolate;
      }

      .st8, .st7 {
        fill: #333;
      }

      .st7 {
        font-family: Arial-BoldMT, Arial;
        font-size: 20px;
        font-weight: 700;
      }
    </style>
  </defs>
  <path class="st3" d="M0,0"/>
  <g class="st6">
    <g class="st6">
      <text class="st7" transform="translate(67.3 122.2)"><tspan x="0" y="0">arBorae</tspan></text>
    </g>
  </g>
  <path class="st8" d="M0,0"/>
  <g>
    <circle class="st4" cx="99.7" cy="59.5" r="32.3"/>
    <g>
      <g>
        <line class="st2" x1="100" y1="44.3" x2="100" y2="73"/>
        <line class="st2" x1="81" y1="64.3" x2="100.6" y2="73.8"/>
        <line class="st2" x1="119" y1="64.3" x2="99.4" y2="73.8"/>
      </g>
      <g>
        <circle class="st1" cx="100" cy="44.3" r="2.9"/>
        <circle class="st1" cx="81" cy="64.3" r="2.9"/>
        <circle class="st1" cx="119" cy="64.3" r="2.9"/>
      </g>
    </g>
    <path class="st0" d="M100,75.2h0c2.8,0,5,2.2,5,5v21.9c0,2.8-2.2,5-5,5h0c-2.8,0-5-2.2-5-5v-21.9c0-2.8,2.2-5,5-5Z"/>
  </g>
  <g class="st6">
    <g class="st6">
      <text class="st5" transform="translate(3.1 129.2)"><tspan x="0" y="0">Adaptive Reconfigurable Backbone for Optimized Resource Automation and Energy Efficiency </tspan></text>
    </g>
  </g>
</svg>